<?xml version="1.0" encoding="UTF-8"?>
<svg version="1.1" xmlns="http://www.w3.org/2000/svg" width="322" height="350">
<path d="M0 0 C1.61368143 1.36382108 3.21793584 2.7388756 4.8125 4.125 C5.62203125 4.79015625 6.4315625 5.4553125 7.265625 6.140625 C27.46956938 23.2949174 40.14639719 48.82957675 42.8125 75.125 C44.27102342 95.10831428 41.33643821 113.96530556 32.8125 132.125 C32.29945313 133.22070312 31.78640625 134.31640625 31.2578125 135.4453125 C18.66714298 160.44592422 -3.51584383 178.73925994 -29.75 188 C-60.00269518 197.18385389 -89.06914443 194.12106831 -117.0625 179.6875 C-122.55711103 176.61560419 -127.42976642 173.23761717 -132.1875 169.125 C-133.13367188 168.32320312 -134.07984375 167.52140625 -135.0546875 166.6953125 C-155.79501595 148.70971488 -168.66137815 123.5049013 -171.1875 96.125 C-173.33507154 63.25781813 -162.77621068 35.73062708 -141.38671875 11.046875 C-105.54802783 -27.01505977 -41.23318556 -32.36997745 0 0 Z " fill="#177EEF" transform="translate(225.1875,88.875)"/>
<path d="M0 0 C0.87817383 0.00644531 1.75634766 0.01289062 2.66113281 0.01953125 C10.34758135 0.10881123 17.96366547 0.57459324 25.625 1.1875 C25.625 9.7675 25.625 18.3475 25.625 27.1875 C16 27.4375 16 27.4375 13.00146484 27.48535156 C7.44365716 27.69881092 3.98608804 28.41797911 -0.375 32.1875 C-2.69952624 35.67428936 -2.67273734 37.25717571 -2.7890625 41.38671875 C-2.82467285 42.47557373 -2.8602832 43.56442871 -2.89697266 44.6862793 C-2.93097168 46.06855713 -2.9649707 47.45083496 -3 48.875 C-3.185625 55.4646875 -3.185625 55.4646875 -3.375 62.1875 C5.865 62.1875 15.105 62.1875 24.625 62.1875 C23.305 71.7575 21.985 81.3275 20.625 91.1875 C12.705 91.1875 4.785 91.1875 -3.375 91.1875 C-3.375 114.9475 -3.375 138.7075 -3.375 163.1875 C-5.81542784 164.40771392 -7.41110866 164.31676518 -10.13671875 164.3203125 C-11.09126953 164.32160156 -12.04582031 164.32289063 -13.02929688 164.32421875 C-14.03025391 164.32035156 -15.03121094 164.31648437 -16.0625 164.3125 C-17.04412109 164.31636719 -18.02574219 164.32023438 -19.03710938 164.32421875 C-33.25735603 164.30514397 -33.25735603 164.30514397 -35.375 162.1875 C-35.46932985 159.97882169 -35.49242431 157.76708479 -35.48852539 155.55639648 C-35.48867142 154.86374695 -35.48881744 154.17109741 -35.4889679 153.4574585 C-35.48826874 151.15780554 -35.48047628 148.85823263 -35.47265625 146.55859375 C-35.47079208 144.96818588 -35.46936817 143.37777743 -35.46836853 141.78736877 C-35.46454329 137.5935407 -35.45471295 133.39974705 -35.44366455 129.20593262 C-35.43345057 124.92961086 -35.42887094 120.65328356 -35.42382812 116.37695312 C-35.41309068 107.98045116 -35.39549384 99.58398382 -35.375 91.1875 C-43.955 91.1875 -52.535 91.1875 -61.375 91.1875 C-61.375 81.6175 -61.375 72.0475 -61.375 62.1875 C-52.795 62.1875 -44.215 62.1875 -35.375 62.1875 C-35.38660156 60.29386719 -35.39820313 58.40023437 -35.41015625 56.44921875 C-35.4195419 53.92448016 -35.42864126 51.39974049 -35.4375 48.875 C-35.44587891 47.63169922 -35.45425781 46.38839844 -35.46289062 45.10742188 C-35.51912447 23.68232769 -35.51912447 23.68232769 -31.5625 17.8125 C-31.01464844 16.99523437 -30.46679688 16.17796875 -29.90234375 15.3359375 C-29.39832031 14.62695312 -28.89429688 13.91796875 -28.375 13.1875 C-27.7975 12.28 -27.22 11.3725 -26.625 10.4375 C-19.0682537 2.8807537 -10.40324919 -0.15732702 0 0 Z " fill="#FBFDFE" transform="translate(177.375,117.8125)"/>
<path d="M0 0 C0.66 0.33 1.32 0.66 2 1 C-0.97 3.97 -3.94 6.94 -7 10 C-7.66 9.67 -8.32 9.34 -9 9 C-6.21000549 5.51250686 -3.74764169 2.49842779 0 0 Z " fill="#DCEBFC" transform="translate(157,123)"/>
</svg>
